<?xml version="1.0" standalone="no"?>
<!DOCTYPE svg PUBLIC "-//W3C//DTD SVG 20010904//EN"
 "http://www.w3.org/TR/2001/REC-SVG-20010904/DTD/svg10.dtd">
<svg version="1.0" xmlns="http://www.w3.org/2000/svg"
 width="50.000000pt" height="50.000000pt" viewBox="0 0 50.000000 50.000000"
 preserveAspectRatio="xMidYMid meet">

<g transform="translate(0.000000,50.000000) scale(0.100000,-0.100000)"
fill="#000000" stroke="none">
<path d="M216 364 c-9 -8 -16 -22 -16 -29 0 -23 22 -29 36 -10 8 10 17 16 21
12 3 -4 -1 -15 -9 -24 -9 -10 -17 -24 -19 -31 -2 -7 -51 -34 -108 -60 -108
-49 -139 -74 -111 -92 9 -6 111 -9 250 -7 228 2 235 3 235 22 0 16 -25 32
-112 75 -106 52 -111 56 -97 74 7 11 14 28 14 37 0 23 -27 49 -50 49 -10 0
-26 -7 -34 -16z m125 -169 l74 -34 -164 -1 c-90 0 -162 2 -160 4 10 10 145 65
160 66 9 0 50 -16 90 -35z"/>
</g>
</svg>
